<svg xmlns="http://www.w3.org/2000/svg" version="1.1" xmlns:xlink="http://www.w3.org/1999/xlink" xmlns:svgjs="http://svgjs.dev/svgjs" viewBox="0 0 2400 800"><defs><linearGradient x1="50%" y1="0%" x2="50%" y2="100%" id="oooscillate-grad"><stop stop-color="hsl(167, 100%, 50%)" stop-opacity="1" offset="0%"></stop><stop stop-color="hsl(212, 72%, 59%)" stop-opacity="1" offset="100%"></stop></linearGradient></defs><g stroke-width="1.5" stroke="url(#oooscillate-grad)" fill="none" stroke-linecap="round"><path d="M 0 684 Q 600 -100 1200 400 Q 1800 900 2400 684" opacity="0.05"></path><path d="M 0 666 Q 600 -100 1200 400 Q 1800 900 2400 666" opacity="0.08"></path><path d="M 0 648 Q 600 -100 1200 400 Q 1800 900 2400 648" opacity="0.10"></path><path d="M 0 630 Q 600 -100 1200 400 Q 1800 900 2400 630" opacity="0.13"></path><path d="M 0 612 Q 600 -100 1200 400 Q 1800 900 2400 612" opacity="0.15"></path><path d="M 0 594 Q 600 -100 1200 400 Q 1800 900 2400 594" opacity="0.18"></path><path d="M 0 576 Q 600 -100 1200 400 Q 1800 900 2400 576" opacity="0.20"></path><path d="M 0 558 Q 600 -100 1200 400 Q 1800 900 2400 558" opacity="0.23"></path><path d="M 0 540 Q 600 -100 1200 400 Q 1800 900 2400 540" opacity="0.26"></path><path d="M 0 522 Q 600 -100 1200 400 Q 1800 900 2400 522" opacity="0.28"></path><path d="M 0 504 Q 600 -100 1200 400 Q 1800 900 2400 504" opacity="0.31"></path><path d="M 0 486 Q 600 -100 1200 400 Q 1800 900 2400 486" opacity="0.33"></path><path d="M 0 468 Q 600 -100 1200 400 Q 1800 900 2400 468" opacity="0.36"></path><path d="M 0 450 Q 600 -100 1200 400 Q 1800 900 2400 450" opacity="0.38"></path><path d="M 0 432 Q 600 -100 1200 400 Q 1800 900 2400 432" opacity="0.41"></path><path d="M 0 414 Q 600 -100 1200 400 Q 1800 900 2400 414" opacity="0.44"></path><path d="M 0 396 Q 600 -100 1200 400 Q 1800 900 2400 396" opacity="0.46"></path><path d="M 0 378 Q 600 -100 1200 400 Q 1800 900 2400 378" opacity="0.49"></path><path d="M 0 360 Q 600 -100 1200 400 Q 1800 900 2400 360" opacity="0.51"></path><path d="M 0 342 Q 600 -100 1200 400 Q 1800 900 2400 342" opacity="0.54"></path><path d="M 0 324 Q 600 -100 1200 400 Q 1800 900 2400 324" opacity="0.56"></path><path d="M 0 306 Q 600 -100 1200 400 Q 1800 900 2400 306" opacity="0.59"></path><path d="M 0 288 Q 600 -100 1200 400 Q 1800 900 2400 288" opacity="0.61"></path><path d="M 0 270 Q 600 -100 1200 400 Q 1800 900 2400 270" opacity="0.64"></path><path d="M 0 252 Q 600 -100 1200 400 Q 1800 900 2400 252" opacity="0.67"></path><path d="M 0 234 Q 600 -100 1200 400 Q 1800 900 2400 234" opacity="0.69"></path><path d="M 0 216 Q 600 -100 1200 400 Q 1800 900 2400 216" opacity="0.72"></path><path d="M 0 198 Q 600 -100 1200 400 Q 1800 900 2400 198" opacity="0.74"></path><path d="M 0 180 Q 600 -100 1200 400 Q 1800 900 2400 180" opacity="0.77"></path><path d="M 0 162 Q 600 -100 1200 400 Q 1800 900 2400 162" opacity="0.79"></path><path d="M 0 144 Q 600 -100 1200 400 Q 1800 900 2400 144" opacity="0.82"></path><path d="M 0 126 Q 600 -100 1200 400 Q 1800 900 2400 126" opacity="0.85"></path><path d="M 0 108 Q 600 -100 1200 400 Q 1800 900 2400 108" opacity="0.87"></path><path d="M 0 90 Q 600 -100 1200 400 Q 1800 900 2400 90" opacity="0.90"></path><path d="M 0 72 Q 600 -100 1200 400 Q 1800 900 2400 72" opacity="0.92"></path><path d="M 0 54 Q 600 -100 1200 400 Q 1800 900 2400 54" opacity="0.95"></path><path d="M 0 36 Q 600 -100 1200 400 Q 1800 900 2400 36" opacity="0.97"></path></g></svg>