<?xml version="1.0" standalone="no"?>
<!DOCTYPE svg PUBLIC "-//W3C//DTD SVG 20010904//EN"
 "http://www.w3.org/TR/2001/REC-SVG-20010904/DTD/svg10.dtd">
<svg version="1.0" xmlns="http://www.w3.org/2000/svg"
 width="379.000000pt" height="127.000000pt" viewBox="0 0 379.000000 127.000000"
 preserveAspectRatio="xMidYMid meet">

<g transform="translate(0.000000,127.000000) scale(0.100000,-0.100000)"
fill="#000000" stroke="none">
<path d="M3076 922 c-56 -168 -62 -192 -48 -192 6 0 122 333 122 353 0 4 -4 7
-9 7 -5 0 -34 -75 -65 -168z"/>
<path d="M2733 1062 c-28 -4 -30 -22 -3 -22 19 0 20 -7 20 -120 l0 -120 -25 0
c-16 0 -25 -6 -25 -15 0 -12 15 -15 71 -15 52 0 70 3 67 13 -3 6 -17 13 -31
15 l-27 3 0 129 c0 135 -2 140 -47 132z"/>
<path d="M460 1040 c0 -5 14 -10 30 -10 l30 0 0 -115 0 -115 -30 0 c-20 0 -30
-5 -30 -15 0 -12 15 -15 75 -15 60 0 75 3 75 15 0 10 -10 15 -30 15 l-30 0 0
115 0 115 30 0 c17 0 30 5 30 10 0 6 -32 10 -75 10 -43 0 -75 -4 -75 -10z"/>
<path d="M1550 910 c0 -87 4 -140 10 -140 6 0 10 24 10 53 0 30 3 56 6 60 3 3
39 -21 79 -55 41 -33 81 -58 91 -56 11 2 -9 23 -65 68 -44 36 -81 68 -81 71 0
3 28 28 61 55 34 27 71 57 83 66 l21 18 -22 0 c-12 0 -50 -24 -87 -55 -35 -30
-69 -55 -75 -55 -7 0 -11 22 -11 55 0 30 -4 55 -10 55 -6 0 -10 -53 -10 -140z"/>
<path d="M687 952 c-34 -37 -16 -65 57 -92 33 -12 41 -21 41 -40 0 -16 -6 -26
-18 -28 -31 -6 -65 7 -72 28 -7 23 -35 27 -35 5 0 -29 38 -55 81 -55 57 0 79
14 79 51 0 28 -6 33 -60 56 -40 18 -60 32 -60 44 0 33 52 39 77 9 22 -25 45
-27 36 -2 -10 28 -34 42 -73 42 -23 0 -43 -7 -53 -18z"/>
<path d="M887 952 c-34 -37 -16 -65 57 -92 33 -12 41 -21 41 -40 0 -16 -6 -26
-18 -28 -31 -6 -65 7 -72 28 -7 23 -35 27 -35 5 0 -29 38 -55 81 -55 56 0 79
15 79 49 0 34 -9 42 -72 65 -33 12 -48 23 -48 36 0 34 51 40 77 10 22 -25 45
-27 36 -2 -10 28 -34 42 -73 42 -23 0 -43 -7 -53 -18z"/>
<path d="M1070 891 c0 -68 3 -84 20 -101 24 -24 67 -26 98 -4 32 22 27 36 -7
16 -24 -13 -34 -14 -55 -4 -23 10 -25 17 -28 88 -2 51 -7 79 -15 82 -10 3 -13
-17 -13 -77z"/>
<path d="M1218 900 c-2 -39 0 -70 3 -70 3 0 4 -13 1 -30 -3 -23 0 -30 12 -30
14 0 16 15 16 100 0 80 -3 100 -14 100 -11 0 -15 -18 -18 -70z"/>
<path d="M1333 946 c-24 -21 -28 -32 -28 -76 0 -44 4 -55 28 -76 39 -33 99
-33 132 1 26 25 32 45 15 45 -5 0 -20 -11 -34 -25 -31 -31 -66 -32 -94 -2 -43
45 -31 57 56 57 l79 0 -5 30 c-9 66 -95 92 -149 46z m105 -23 l27 -28 -64 -3
c-35 -2 -65 -1 -67 1 -9 9 8 35 29 45 34 17 46 14 75 -15z"/>
<path d="M1853 960 c-30 -12 -43 -41 -43 -95 0 -62 32 -95 90 -95 33 0 48 6
73 32 21 21 28 33 19 36 -7 2 -24 -8 -37 -22 -13 -14 -35 -26 -48 -26 -30 0
-65 28 -69 55 -3 18 3 20 75 23 83 3 88 7 66 55 -19 41 -75 57 -126 37z m94
-32 c7 -6 13 -17 13 -24 0 -11 -17 -14 -65 -14 -62 0 -65 1 -55 20 21 39 72
48 107 18z"/>
<path d="M2056 954 c-3 -9 -6 -54 -6 -100 0 -67 3 -84 15 -84 11 0 15 19 17
88 l3 87 53 -3 c41 -2 52 1 52 13 0 22 -125 22 -134 -1z"/>
<path d="M2230 870 c0 -80 3 -100 14 -100 11 0 15 18 18 70 2 39 0 70 -3 70
-3 0 -4 14 -1 30 3 23 0 30 -12 30 -14 0 -16 -15 -16 -100z"/>
<path d="M2292 954 c-12 -8 -22 -20 -22 -25 0 -6 10 -3 22 5 58 41 88 10 88
-90 0 -59 3 -74 15 -74 12 0 15 16 15 80 0 67 -3 83 -20 100 -24 24 -67 26
-98 4z"/>
<path d="M2503 955 c-32 -23 -47 -77 -33 -120 14 -44 44 -65 91 -65 39 0 89
31 89 56 0 21 -14 17 -38 -11 -28 -32 -66 -32 -98 0 -39 39 -27 50 60 53 l78
3 -6 27 c-15 61 -93 92 -143 57z m105 -32 c21 -29 14 -33 -53 -33 -36 0 -65 4
-65 9 0 5 12 19 27 31 30 24 69 20 91 -7z"/>
<path d="M153 912 c-98 -36 -97 -52 5 -86 82 -28 102 -31 102 -18 0 5 -34 19
-75 32 -42 13 -72 27 -68 30 5 4 38 18 76 30 37 13 67 27 67 32 0 13 -31 8
-107 -20z"/>
<path d="M3220 932 c0 -5 30 -19 68 -32 37 -12 70 -26 75 -30 4 -3 -26 -17
-68 -30 -41 -13 -75 -27 -75 -32 0 -13 20 -10 102 18 104 34 104 50 0 87 -82
28 -102 32 -102 19z"/>
<path d="M3333 793 c-18 -30 -16 -46 7 -76 29 -36 27 -67 -5 -67 -35 0 -86
-23 -109 -49 -11 -11 -17 -23 -15 -25 2 -2 94 -64 203 -136 226 -149 226 -149
226 -38 0 57 0 57 28 52 21 -4 33 1 55 24 34 35 18 56 -17 23 -41 -39 -66 -29
-129 50 -35 45 -36 47 -17 60 22 17 32 90 13 96 -9 3 -13 -6 -13 -26 0 -17 -8
-38 -20 -49 -19 -18 -21 -18 -85 2 -57 19 -65 24 -65 47 0 14 -9 34 -19 44
-11 9 -21 33 -23 54 -3 34 -4 35 -15 14z m45 -217 c6 -27 -25 -48 -49 -35 -22
11 -24 30 -7 47 18 18 52 10 56 -12z m121 -20 c16 -19 -4 -59 -26 -54 -26 5
-39 34 -24 52 17 20 35 20 50 2z m85 -113 c9 -22 -13 -45 -38 -41 -26 4 -33
38 -11 54 20 15 41 9 49 -13z"/>
<path d="M3126 782 c-12 -20 -17 -91 -8 -108 14 -27 -12 -56 -65 -72 -24 -7
-43 -17 -43 -22 0 -6 -6 -10 -14 -10 -20 0 -29 -31 -14 -46 15 -15 38 -5 41
17 7 40 61 56 74 22 9 -26 34 -53 48 -53 7 0 15 14 19 31 3 17 22 47 42 67 33
33 35 37 18 49 -10 7 -33 13 -51 13 -18 0 -33 4 -33 9 0 5 -3 16 -6 25 -3 8 3
22 15 33 27 22 28 53 2 53 -11 0 -22 -4 -25 -8z"/>
<path d="M3179 533 c-6 -16 -9 -55 -7 -88 l3 -60 -45 0 c-55 0 -90 -12 -90
-30 0 -11 6 -12 23 -6 12 4 48 7 79 7 54 -1 59 -4 97 -45 50 -54 53 -84 11
-106 -16 -9 -30 -20 -30 -25 0 -29 76 11 84 44 6 24 7 25 49 11 23 -7 54 -16
68 -19 36 -8 54 -46 41 -85 -16 -46 5 -50 24 -5 12 29 13 43 5 56 -17 27 -14
35 17 41 40 9 94 45 90 62 -2 11 -389 275 -404 275 -2 0 -9 -12 -15 -27z m109
-89 c4 -25 -20 -47 -42 -38 -16 6 -22 45 -9 58 14 14 48 1 51 -20z m75 -96
c14 -21 2 -48 -22 -48 -30 0 -45 34 -25 55 18 18 33 16 47 -7z m135 -51 c-5
-37 -67 -33 -68 5 0 4 7 14 16 22 21 22 56 3 52 -27z"/>
</g>
</svg>
